<mxfile host="app.diagrams.net" agent="Mozilla/5.0 (Windows NT 10.0; Win64; x64) AppleWebKit/537.36 (KHTML, like Gecko) Chrome/130.0.0.0 Safari/537.36" version="26.1.0" pages="3">
  <diagram name="Diagrama de caso de uso" id="xcA39kuPLzymjT6agbjP">
    <mxGraphModel dx="1434" dy="728" grid="1" gridSize="10" guides="1" tooltips="1" connect="1" arrows="1" fold="1" page="1" pageScale="1" pageWidth="827" pageHeight="1169" math="0" shadow="0">
      <root>
        <mxCell id="0" />
        <mxCell id="1" parent="0" />
      </root>
    </mxGraphModel>
  </diagram>
  <diagram id="s45IghpgLH8B6r_WTjBE" name="Diagrama de Secuencia">
    <mxGraphModel dx="1434" dy="728" grid="1" gridSize="10" guides="1" tooltips="1" connect="1" arrows="1" fold="1" page="1" pageScale="1" pageWidth="827" pageHeight="1169" math="0" shadow="0">
      <root>
        <mxCell id="0" />
        <mxCell id="1" parent="0" />
      </root>
    </mxGraphModel>
  </diagram>
  <diagram id="6RL5IYVW7ehFDLnIbYe4" name="Diagrama de Colaboración">
    <mxGraphModel dx="2261" dy="728" grid="1" gridSize="10" guides="1" tooltips="1" connect="1" arrows="1" fold="1" page="1" pageScale="1" pageWidth="827" pageHeight="1169" math="0" shadow="0">
      <root>
        <mxCell id="0" />
        <mxCell id="1" parent="0" />
        <mxCell id="9GPXxR69ikhWOOgvVDXS-1" value="" style="rounded=0;whiteSpace=wrap;html=1;" vertex="1" parent="1">
          <mxGeometry x="-270" y="50" width="580" height="490" as="geometry" />
        </mxCell>
        <mxCell id="9GPXxR69ikhWOOgvVDXS-2" value="&lt;font style=&quot;font-size: 27px;&quot; face=&quot;Times New Roman&quot;&gt;Diagrama de Colaboración de un Sistema de Facturtación&lt;/font&gt;" style="text;html=1;align=center;verticalAlign=middle;whiteSpace=wrap;rounded=0;" vertex="1" parent="1">
          <mxGeometry x="-165" y="100" width="280" height="110" as="geometry" />
        </mxCell>
        <mxCell id="9GPXxR69ikhWOOgvVDXS-4" value="Cliente&lt;div&gt;&lt;br&gt;&lt;/div&gt;" style="shape=umlActor;verticalLabelPosition=bottom;verticalAlign=top;html=1;outlineConnect=0;" vertex="1" parent="1">
          <mxGeometry x="-250" y="255" width="100" height="140" as="geometry" />
        </mxCell>
        <mxCell id="9GPXxR69ikhWOOgvVDXS-5" value="Sistema" style="rounded=0;whiteSpace=wrap;html=1;" vertex="1" parent="1">
          <mxGeometry x="110" y="285" width="170" height="110" as="geometry" />
        </mxCell>
        <mxCell id="9GPXxR69ikhWOOgvVDXS-6" value="" style="endArrow=classic;html=1;rounded=0;" edge="1" parent="1">
          <mxGeometry width="50" height="50" relative="1" as="geometry">
            <mxPoint x="379" y="320" as="sourcePoint" />
            <mxPoint x="689" y="320" as="targetPoint" />
            <Array as="points">
              <mxPoint x="439" y="320" />
            </Array>
          </mxGeometry>
        </mxCell>
        <mxCell id="9GPXxR69ikhWOOgvVDXS-7" value="" style="endArrow=classic;html=1;rounded=0;" edge="1" parent="1">
          <mxGeometry width="50" height="50" relative="1" as="geometry">
            <mxPoint x="-80" y="310" as="sourcePoint" />
            <mxPoint x="70" y="310" as="targetPoint" />
          </mxGeometry>
        </mxCell>
        <mxCell id="9GPXxR69ikhWOOgvVDXS-8" value=" &lt;br&gt;&lt;font&gt;  &lt;br&gt;&lt;font&gt; &lt;br&gt;&lt;br&gt;01.Solicitar_Factura&lt;/font&gt;&lt;/font&gt;&lt;div&gt;&lt;font&gt;&lt;font&gt;06.Realiza_pago&lt;/font&gt;&lt;/font&gt;&lt;/div&gt;" style="text;html=1;align=center;verticalAlign=middle;whiteSpace=wrap;rounded=0;" vertex="1" parent="1">
          <mxGeometry x="-110" y="165" width="170" height="90" as="geometry" />
        </mxCell>
        <mxCell id="9GPXxR69ikhWOOgvVDXS-9" value=" &lt;font&gt;&lt;br&gt;&lt;font&gt;&lt;font&gt;&lt;font&gt;03. Revisa_catalogo 04.Revisa_disponibilidad&lt;/font&gt;&lt;br&gt;&lt;font&gt;&lt;font&gt;05.Revisa_adeudo 06.Realiza_pago&lt;/font&gt;&lt;/font&gt;&lt;/font&gt;&lt;/font&gt;&lt;/font&gt;" style="text;html=1;align=center;verticalAlign=middle;whiteSpace=wrap;rounded=0;" vertex="1" parent="1">
          <mxGeometry x="509" y="210" width="150" height="90" as="geometry" />
        </mxCell>
        <mxCell id="9GPXxR69ikhWOOgvVDXS-10" value="" style="endArrow=classic;html=1;rounded=0;dashed=1;dashPattern=12 12;" edge="1" parent="1">
          <mxGeometry width="50" height="50" relative="1" as="geometry">
            <mxPoint x="679" y="395" as="sourcePoint" />
            <mxPoint x="369" y="395" as="targetPoint" />
            <Array as="points">
              <mxPoint x="439" y="395" />
            </Array>
          </mxGeometry>
        </mxCell>
        <mxCell id="9GPXxR69ikhWOOgvVDXS-11" value="07. Actualizar_adeudo&lt;br&gt;&lt;font&gt;08. Actúalizar_inventario&lt;/font&gt;" style="text;html=1;align=center;verticalAlign=middle;whiteSpace=wrap;rounded=0;" vertex="1" parent="1">
          <mxGeometry x="479" y="330" width="150" height="90" as="geometry" />
        </mxCell>
        <mxCell id="9GPXxR69ikhWOOgvVDXS-12" value="09.Devolución_o_Entrega_del_pedido" style="text;html=1;align=center;verticalAlign=middle;whiteSpace=wrap;rounded=0;" vertex="1" parent="1">
          <mxGeometry x="-100" y="430" width="150" height="90" as="geometry" />
        </mxCell>
        <mxCell id="9GPXxR69ikhWOOgvVDXS-13" value="" style="endArrow=classic;html=1;rounded=0;dashed=1;dashPattern=8 8;" edge="1" parent="1">
          <mxGeometry width="50" height="50" relative="1" as="geometry">
            <mxPoint x="259" y="400" as="sourcePoint" />
            <mxPoint x="69" y="400" as="targetPoint" />
          </mxGeometry>
        </mxCell>
      </root>
    </mxGraphModel>
  </diagram>
</mxfile>
